<mxfile host="Electron" modified="2023-08-09T18:34:06.371Z" agent="Mozilla/5.0 (Windows NT 10.0; Win64; x64) AppleWebKit/537.36 (KHTML, like Gecko) draw.io/21.6.5 Chrome/114.0.5735.243 Electron/25.3.1 Safari/537.36" etag="tKkQiUBD2HrOu1bMiEFB" version="21.6.5" type="device">
  <diagram name="Page-1" id="Sru_sg7wI8Qu8YQZBvD5">
    <mxGraphModel dx="2444" dy="796" grid="1" gridSize="10" guides="1" tooltips="1" connect="1" arrows="1" fold="1" page="1" pageScale="1" pageWidth="850" pageHeight="1100" math="0" shadow="0">
      <root>
        <mxCell id="0" />
        <mxCell id="1" parent="0" />
        <mxCell id="CtCYSZdlm7EQsMFYNp1o-10" value="" style="rounded=1;whiteSpace=wrap;html=1;fillColor=none;" parent="1" vertex="1">
          <mxGeometry x="280" y="160" width="320" height="200" as="geometry" />
        </mxCell>
        <mxCell id="CtCYSZdlm7EQsMFYNp1o-12" value="" style="rounded=1;whiteSpace=wrap;html=1;fillColor=none;" parent="1" vertex="1">
          <mxGeometry x="280" y="440" width="320" height="290" as="geometry" />
        </mxCell>
        <mxCell id="CtCYSZdlm7EQsMFYNp1o-13" value="" style="rounded=1;whiteSpace=wrap;html=1;fillColor=none;" parent="1" vertex="1">
          <mxGeometry x="280" y="810" width="320" height="190" as="geometry" />
        </mxCell>
        <mxCell id="CtCYSZdlm7EQsMFYNp1o-22" style="edgeStyle=orthogonalEdgeStyle;rounded=0;orthogonalLoop=1;jettySize=auto;html=1;entryX=0.5;entryY=0;entryDx=0;entryDy=0;" parent="1" source="iyQTLWZABHlzWYittP99-1" target="CtCYSZdlm7EQsMFYNp1o-8" edge="1">
          <mxGeometry relative="1" as="geometry" />
        </mxCell>
        <mxCell id="iyQTLWZABHlzWYittP99-1" value="USER" style="shape=umlActor;verticalLabelPosition=bottom;verticalAlign=top;html=1;outlineConnect=0;" parent="1" vertex="1">
          <mxGeometry x="425" y="20" width="30" height="60" as="geometry" />
        </mxCell>
        <mxCell id="iyQTLWZABHlzWYittP99-29" value="DATABASE" style="shape=cylinder3;whiteSpace=wrap;html=1;boundedLbl=1;backgroundOutline=1;size=15;" parent="1" vertex="1">
          <mxGeometry x="930" y="575" width="150" height="200" as="geometry" />
        </mxCell>
        <mxCell id="CtCYSZdlm7EQsMFYNp1o-1" value="Controller Classes" style="ellipse;whiteSpace=wrap;html=1;" parent="1" vertex="1">
          <mxGeometry x="360" y="470" width="160" height="50" as="geometry" />
        </mxCell>
        <mxCell id="CtCYSZdlm7EQsMFYNp1o-2" value="Service Classes" style="ellipse;whiteSpace=wrap;html=1;" parent="1" vertex="1">
          <mxGeometry x="360" y="560" width="160" height="50" as="geometry" />
        </mxCell>
        <mxCell id="CtCYSZdlm7EQsMFYNp1o-3" value="DAO Classes" style="ellipse;whiteSpace=wrap;html=1;" parent="1" vertex="1">
          <mxGeometry x="360" y="650" width="160" height="50" as="geometry" />
        </mxCell>
        <mxCell id="CtCYSZdlm7EQsMFYNp1o-6" value="Domain Classes" style="ellipse;whiteSpace=wrap;html=1;" parent="1" vertex="1">
          <mxGeometry x="360" y="880" width="160" height="50" as="geometry" />
        </mxCell>
        <mxCell id="CtCYSZdlm7EQsMFYNp1o-24" style="edgeStyle=orthogonalEdgeStyle;rounded=0;orthogonalLoop=1;jettySize=auto;html=1;entryX=0.5;entryY=0;entryDx=0;entryDy=0;startArrow=classic;startFill=1;" parent="1" source="CtCYSZdlm7EQsMFYNp1o-7" target="CtCYSZdlm7EQsMFYNp1o-1" edge="1">
          <mxGeometry relative="1" as="geometry" />
        </mxCell>
        <mxCell id="CtCYSZdlm7EQsMFYNp1o-7" value="FXML Files (Views)" style="ellipse;whiteSpace=wrap;html=1;" parent="1" vertex="1">
          <mxGeometry x="360" y="280" width="160" height="50" as="geometry" />
        </mxCell>
        <mxCell id="CtCYSZdlm7EQsMFYNp1o-23" style="edgeStyle=orthogonalEdgeStyle;rounded=0;orthogonalLoop=1;jettySize=auto;html=1;startArrow=classic;startFill=1;" parent="1" source="CtCYSZdlm7EQsMFYNp1o-8" target="CtCYSZdlm7EQsMFYNp1o-7" edge="1">
          <mxGeometry relative="1" as="geometry" />
        </mxCell>
        <mxCell id="CtCYSZdlm7EQsMFYNp1o-8" value="Login" style="ellipse;whiteSpace=wrap;html=1;" parent="1" vertex="1">
          <mxGeometry x="360" y="190" width="160" height="50" as="geometry" />
        </mxCell>
        <mxCell id="CtCYSZdlm7EQsMFYNp1o-14" value="" style="endArrow=classic;startArrow=classic;html=1;rounded=0;entryX=0;entryY=0.5;entryDx=0;entryDy=0;entryPerimeter=0;" parent="1" target="iyQTLWZABHlzWYittP99-29" edge="1">
          <mxGeometry width="50" height="50" relative="1" as="geometry">
            <mxPoint x="520" y="675" as="sourcePoint" />
            <mxPoint x="910" y="690" as="targetPoint" />
          </mxGeometry>
        </mxCell>
        <mxCell id="CtCYSZdlm7EQsMFYNp1o-15" value="" style="endArrow=classic;startArrow=classic;html=1;rounded=0;entryX=0.5;entryY=1;entryDx=0;entryDy=0;exitX=0.5;exitY=0;exitDx=0;exitDy=0;" parent="1" source="CtCYSZdlm7EQsMFYNp1o-6" target="CtCYSZdlm7EQsMFYNp1o-3" edge="1">
          <mxGeometry width="50" height="50" relative="1" as="geometry">
            <mxPoint x="410" y="800" as="sourcePoint" />
            <mxPoint x="460" y="750" as="targetPoint" />
          </mxGeometry>
        </mxCell>
        <mxCell id="CtCYSZdlm7EQsMFYNp1o-17" value="" style="endArrow=classic;startArrow=classic;html=1;rounded=0;entryX=0.5;entryY=1;entryDx=0;entryDy=0;entryPerimeter=0;exitX=1;exitY=0.5;exitDx=0;exitDy=0;" parent="1" source="CtCYSZdlm7EQsMFYNp1o-6" target="iyQTLWZABHlzWYittP99-29" edge="1">
          <mxGeometry width="50" height="50" relative="1" as="geometry">
            <mxPoint x="610" y="900" as="sourcePoint" />
            <mxPoint x="660" y="850" as="targetPoint" />
            <Array as="points">
              <mxPoint x="1005" y="905" />
            </Array>
          </mxGeometry>
        </mxCell>
        <mxCell id="CtCYSZdlm7EQsMFYNp1o-18" value="" style="endArrow=classic;startArrow=classic;html=1;rounded=0;entryX=0.5;entryY=1;entryDx=0;entryDy=0;exitX=0.5;exitY=0;exitDx=0;exitDy=0;" parent="1" source="CtCYSZdlm7EQsMFYNp1o-3" target="CtCYSZdlm7EQsMFYNp1o-2" edge="1">
          <mxGeometry width="50" height="50" relative="1" as="geometry">
            <mxPoint x="390" y="650" as="sourcePoint" />
            <mxPoint x="440" y="600" as="targetPoint" />
          </mxGeometry>
        </mxCell>
        <mxCell id="CtCYSZdlm7EQsMFYNp1o-19" value="" style="endArrow=classic;startArrow=classic;html=1;rounded=0;entryX=0.5;entryY=1;entryDx=0;entryDy=0;exitX=0.5;exitY=0;exitDx=0;exitDy=0;" parent="1" edge="1">
          <mxGeometry width="50" height="50" relative="1" as="geometry">
            <mxPoint x="439.57" y="560" as="sourcePoint" />
            <mxPoint x="439.57" y="520" as="targetPoint" />
          </mxGeometry>
        </mxCell>
        <mxCell id="CtCYSZdlm7EQsMFYNp1o-25" value="VIEW" style="text;html=1;strokeColor=none;fillColor=none;align=center;verticalAlign=middle;whiteSpace=wrap;rounded=0;" parent="1" vertex="1">
          <mxGeometry x="280" y="130" width="60" height="30" as="geometry" />
        </mxCell>
        <mxCell id="CtCYSZdlm7EQsMFYNp1o-26" value="CONTROLLER" style="text;html=1;strokeColor=none;fillColor=none;align=center;verticalAlign=middle;whiteSpace=wrap;rounded=0;" parent="1" vertex="1">
          <mxGeometry x="280" y="410" width="60" height="30" as="geometry" />
        </mxCell>
        <mxCell id="CtCYSZdlm7EQsMFYNp1o-28" value="MODEL" style="text;html=1;strokeColor=none;fillColor=none;align=center;verticalAlign=middle;whiteSpace=wrap;rounded=0;" parent="1" vertex="1">
          <mxGeometry x="280" y="780" width="60" height="30" as="geometry" />
        </mxCell>
        <mxCell id="rBssXFeD_SUdUHeoeIjC-1" value="" style="endArrow=classic;html=1;rounded=0;exitX=1;exitY=0.25;exitDx=0;exitDy=0;entryX=0;entryY=1;entryDx=0;entryDy=0;startArrow=classic;startFill=1;" parent="1" source="7-D-_c3W0WUpLrvD1SGf-2" target="CtCYSZdlm7EQsMFYNp1o-10" edge="1">
          <mxGeometry width="50" height="50" relative="1" as="geometry">
            <mxPoint x="126.5685424949238" y="567.3223304703363" as="sourcePoint" />
            <mxPoint x="100" y="450" as="targetPoint" />
          </mxGeometry>
        </mxCell>
        <mxCell id="rBssXFeD_SUdUHeoeIjC-2" value="" style="endArrow=classic;html=1;rounded=0;exitX=1;exitY=0.5;exitDx=0;exitDy=0;entryX=0;entryY=0.5;entryDx=0;entryDy=0;startArrow=classic;startFill=1;" parent="1" source="7-D-_c3W0WUpLrvD1SGf-2" target="CtCYSZdlm7EQsMFYNp1o-12" edge="1">
          <mxGeometry width="50" height="50" relative="1" as="geometry">
            <mxPoint x="150" y="585" as="sourcePoint" />
            <mxPoint x="180" y="620" as="targetPoint" />
          </mxGeometry>
        </mxCell>
        <mxCell id="rBssXFeD_SUdUHeoeIjC-3" value="" style="endArrow=classic;html=1;rounded=0;exitX=1;exitY=0.75;exitDx=0;exitDy=0;entryX=0;entryY=1;entryDx=0;entryDy=0;startArrow=classic;startFill=1;" parent="1" source="7-D-_c3W0WUpLrvD1SGf-2" target="CtCYSZdlm7EQsMFYNp1o-28" edge="1">
          <mxGeometry width="50" height="50" relative="1" as="geometry">
            <mxPoint x="126.5685424949238" y="602.6776695296637" as="sourcePoint" />
            <mxPoint x="230" y="670" as="targetPoint" />
          </mxGeometry>
        </mxCell>
        <mxCell id="7-D-_c3W0WUpLrvD1SGf-2" value="" style="rounded=1;whiteSpace=wrap;html=1;fillColor=none;" parent="1" vertex="1">
          <mxGeometry x="-200" y="440" width="320" height="290" as="geometry" />
        </mxCell>
        <mxCell id="7-D-_c3W0WUpLrvD1SGf-3" value="UTIL" style="text;html=1;strokeColor=none;fillColor=none;align=center;verticalAlign=middle;whiteSpace=wrap;rounded=0;" parent="1" vertex="1">
          <mxGeometry x="-200" y="410" width="60" height="30" as="geometry" />
        </mxCell>
        <mxCell id="HD0A5dT3ZemnwojUwjtC-1" value="Session.java" style="html=1;whiteSpace=wrap;" vertex="1" parent="1">
          <mxGeometry x="-95" y="470" width="110" height="50" as="geometry" />
        </mxCell>
        <mxCell id="HD0A5dT3ZemnwojUwjtC-2" value="JavaFXUtils.java" style="html=1;whiteSpace=wrap;" vertex="1" parent="1">
          <mxGeometry x="-95" y="560" width="110" height="50" as="geometry" />
        </mxCell>
      </root>
    </mxGraphModel>
  </diagram>
</mxfile>
